HIERARCHY
ROOT Hips
{
  OFFSET 47.5263 84.1758 13.2849
  CHANNELS 6 Xposition Yposition Zposition Zrotation Xrotation Yrotation
  JOINT spine
  {
    OFFSET 0 6.2448 0.359107
    CHANNELS 3 Zrotation Xrotation Yrotation
    JOINT spine1
    {
      OFFSET 0 9.06941 0
      CHANNELS 3 Zrotation Xrotation Yrotation
      JOINT spine2
      {
        OFFSET 0 8.69014 0
        CHANNELS 3 Zrotation Xrotation Yrotation
        JOINT Neck
        {
          OFFSET 0 22.3112 1.06372
          CHANNELS 3 Zrotation Xrotation Yrotation
          JOINT Head
          {
            OFFSET 0 6.74081 0
            CHANNELS 3 Zrotation Xrotation Yrotation
            End Site
            {
              OFFSET 0 16.3165 -5.38097
            }
          }
        }
        JOINT RightShoulder
        {
          OFFSET -3.65916 9.38468 -0.509514
          CHANNELS 3 Zrotation Xrotation Yrotation
          JOINT RightArm
          {
            OFFSET 0 12.3089 0
            CHANNELS 3 Zrotation Xrotation Yrotation
            JOINT RightArmRoll
            {
              OFFSET 0 6.21375 0
              CHANNELS 3 Zrotation Xrotation Yrotation
              JOINT RightForeArm
              {
                OFFSET 0 18.0985 0
                CHANNELS 3 Zrotation Xrotation Yrotation
                JOINT RightForeArmRoll
                {
                  OFFSET 0 6.97279 0
                  CHANNELS 3 Zrotation Xrotation Yrotation
                  JOINT RightHand
                  {
                    OFFSET 0 13.9929 0
                    CHANNELS 3 Zrotation Xrotation Yrotation
                    End Site
                    {
                      OFFSET 0 0 0
                    }
                  }
                }
              }
            }
          }
        }
        JOINT LeftShoulder
        {
          OFFSET 3.65916 9.38468 -0.509514
          CHANNELS 3 Zrotation Xrotation Yrotation
          JOINT LeftArm
          {
            OFFSET 0 12.3089 0
            CHANNELS 3 Zrotation Xrotation Yrotation
            JOINT LeftArmRoll
            {
              OFFSET 0 6.21375 0
              CHANNELS 3 Zrotation Xrotation Yrotation
              JOINT LeftForeArm
              {
                OFFSET 0 18.0985 0
                CHANNELS 3 Zrotation Xrotation Yrotation
                JOINT LeftForeArmRoll
                {
                  OFFSET 0 6.9728 0
                  CHANNELS 3 Zrotation Xrotation Yrotation
                  JOINT LeftHand
                  {
                    OFFSET 0 13.9929 0
                    CHANNELS 3 Zrotation Xrotation Yrotation
                    End Site
                    {
                      OFFSET 0 0 0
                    }
                  }
                }
              }
            }
          }
        }
      }
    }
  }
  JOINT RightUpLeg
  {
    OFFSET -5.53516 -1.015 -0.851454
    CHANNELS 3 Zrotation Xrotation Yrotation
    JOINT RightUpLegRoll
    {
      OFFSET 0 16.4075 0
      CHANNELS 3 Zrotation Xrotation Yrotation
      JOINT RightLeg
      {
        OFFSET 0 -20.3181 0
        CHANNELS 3 Zrotation Xrotation Yrotation
        JOINT RightLegRoll
        {
          OFFSET 0 20.3846 0
          CHANNELS 3 Zrotation Xrotation Yrotation
          JOINT RightFoot
          {
            OFFSET 0 16.9668 0
            CHANNELS 3 Zrotation Xrotation Yrotation
            JOINT RightToeBase
            {
              OFFSET 0 14.1834 0
              CHANNELS 3 Zrotation Xrotation Yrotation
              End Site
              {
                OFFSET 0.0060118 6.8689 -0.791746
              }
            }
          }
        }
      }
    }
  }
  JOINT LeftUpLeg
  {
    OFFSET 5.53516 -1.015 -0.851454
    CHANNELS 3 Zrotation Xrotation Yrotation
    JOINT LeftUpLegRoll
    {
      OFFSET 0 16.4076 0
      CHANNELS 3 Zrotation Xrotation Yrotation
      JOINT LeftLeg
      {
        OFFSET 0 20.3181 0
        CHANNELS 3 Zrotation Xrotation Yrotation
        JOINT LeftLegRoll
        {
          OFFSET 0 20.5731 0
          CHANNELS 3 Zrotation Xrotation Yrotation
          JOINT LeftFoot
          {
            OFFSET 0 16.7783 0
            CHANNELS 3 Zrotation Xrotation Yrotation
            JOINT LeftToeBase
            {
              OFFSET 0 14.1834 0
              CHANNELS 3 Zrotation Xrotation Yrotation
              End Site
              {
                OFFSET -0.0269423 6.86889 -0.791746
              }
            }
          }
        }
      }
    }
  }
}
MOTION
Frames: 8
Frame Time: 0.00208333
47.1115 84.1263 13.1919 -0.302946 -1.31664 -4.29254 -0.322883 -1.67438 0.0841512 -0.641936 0.675286 0.201091 -0.64485 2.3203 0.211985 6.65479 12.4817 0.038513 -4.3289 1.39933 1.84942 68.1256 -0.568154 -1.34252 124.58 43.796 -33.8447 6.18792e-007 -1.44516e-005 -1.23741e-005 149.396 87.5925 -153.966 -5.09628e-006 2.69547e-006 -3 8.03009 -4.95125 0.697601 -60.4212 -8.37121 5.22083 -124.433 39.441 38.4602 -9.54166e-015 0 -3.18055e-015 151.586 85.9732 -144.865 8.22934e-006 8.2099e-006 3.00001 -8.03021 -4.9511 -0.697571 176.859 6.35816 0.171096 180 7.01596e-015 179.161 179.89 11.7949 178.909 6.41127e-007 1.71655e-006 0.0966806 -15.202 68.898 20.1893 8.13649 25.2327 -3.48774 -175.617 0.181742 -3.24729 4.54188e-006 -4.6773e-006 -1.01358 -1.27542 -11.7648 0.732429 -2.07562e-006 2.90996e-007 -0.270629 22.5754 73.1019 -24.8432 -8.13656 25.2337 3.48635 
47.1085 84.1268 13.195 -0.303191 -1.31178 -4.30067 -0.323091 -1.67535 0.083798 -0.642063 0.672778 0.200689 -0.644963 2.31779 0.211581 6.66293 12.4982 0.0369804 -4.33917 1.39615 1.8505 68.1294 -0.572503 -1.34516 124.668 43.8187 -33.8466 6.18792e-007 -1.44516e-005 -1.23741e-005 148.874 87.6074 -153.428 -5.09628e-006 2.69547e-006 -3 8.03009 -4.95125 0.697601 -60.4318 -8.35388 5.21044 -124.463 39.4605 38.4565 -3.18055e-015 -6.36111e-015 -0 151.551 85.956 -144.83 8.22934e-006 8.2099e-006 3.00001 -8.03021 -4.9511 -0.697571 176.857 6.36396 0.173526 180 7.01596e-015 179.161 179.885 11.7919 178.911 6.41127e-007 1.71655e-006 0.0967762 -15.2041 68.8977 20.1895 8.13649 25.2327 -3.48774 -175.616 0.183366 -3.24807 4.54188e-006 -4.6773e-006 -1.01358 -1.27726 -11.7612 0.732096 -2.07562e-006 2.90996e-007 -0.270708 22.5796 73.1013 -24.8436 -8.13656 25.2337 3.48635 
47.1121 84.1322 13.2032 -0.303136 -1.30652 -4.30848 -0.323468 -1.67627 0.0835123 -0.64239 0.670027 0.2005 -0.645275 2.31504 0.211391 6.67244 12.5154 0.0346372 -4.3496 1.39226 1.85121 68.1357 -0.576518 -1.34792 124.755 43.8406 -33.8515 6.18792e-007 -1.44516e-005 -1.23741e-005 148.311 87.6247 -152.848 -5.09628e-006 2.69547e-006 -3 8.03009 -4.95125 0.697601 -60.4415 -8.334 5.19848 -124.489 39.4793 38.4602 -2.22639e-014 0 -1.27222e-014 151.47 85.9454 -144.749 8.22934e-006 8.2099e-006 3.00001 -8.03021 -4.9511 -0.697571 176.855 6.37005 0.175947 180 7.01596e-015 179.161 179.88 11.7887 178.912 6.41127e-007 1.71655e-006 0.0968797 -15.2064 68.8975 20.1896 8.13649 25.2327 -3.48774 -175.616 0.185017 -3.2486 4.54188e-006 -4.6773e-006 -1.01359 -1.27922 -11.7566 0.731745 -2.07562e-006 2.90996e-007 -0.270785 22.5838 73.1001 -24.8437 -8.13656 25.2337 3.48635 
47.1088 84.1339 13.2006 -0.302831 -1.3009 -4.316 -0.323986 -1.67715 0.0832838 -0.642889 0.667075 0.20049 -0.645758 2.31208 0.211385 6.68312 12.5331 0.0315846 -4.36007 1.38789 1.85159 68.1443 -0.580244 -1.35075 124.84 43.8618 -33.8603 6.18792e-007 -1.44516e-005 -1.23741e-005 147.713 87.6437 -152.233 -5.09628e-006 2.69547e-006 -3 8.03009 -4.95125 0.697601 -60.4502 -8.31204 5.18522 -124.513 39.4975 38.4713 3.18055e-015 -1.59028e-014 -0 151.351 85.9409 -144.63 8.22934e-006 8.2099e-006 3.00001 -8.03021 -4.9511 -0.697571 176.854 6.37638 0.178337 180 7.01596e-015 179.161 179.876 11.7854 178.913 6.41127e-007 1.71655e-006 0.0969906 -15.2087 68.8972 20.1897 8.13649 25.2327 -3.48774 -175.617 0.186718 -3.24891 4.54188e-006 -4.6773e-006 -1.0136 -1.28128 -11.7512 0.731379 -2.07562e-006 2.90996e-007 -0.270862 22.5881 73.0984 -24.8434 -8.13656 25.2337 3.48635 
47.1058 84.1292 13.1947 -0.302328 -1.29496 -4.32327 -0.32462 -1.67799 0.083102 -0.643532 0.663962 0.20063 -0.646383 2.30897 0.21153 6.69479 12.551 0.027924 -4.37049 1.38325 1.85168 68.1545 -0.583726 -1.35366 124.925 43.8823 -33.8737 6.18792e-007 -1.44516e-005 -1.23741e-005 147.085 87.6641 -151.588 -5.09628e-006 2.69547e-006 -3 8.03009 -4.95125 0.697601 -60.4582 -8.28847 5.17097 -124.534 39.5151 38.4899 -6.36111e-015 3.49861e-014 -3.18055e-015 151.198 85.9419 -144.478 8.22934e-006 8.2099e-006 3.00001 -8.03021 -4.9511 -0.697571 176.852 6.38294 0.180673 180 7.01596e-015 179.161 179.871 11.7819 178.914 6.41127e-007 1.71655e-006 0.0971083 -15.2112 68.8969 20.1899 8.13649 25.2327 -3.48774 -175.618 0.188493 -3.24903 4.54188e-006 -4.6773e-006 -1.0136 -1.2834 -11.745 0.731003 -2.07562e-006 2.90996e-007 -0.270938 22.5924 73.0963 -24.8429 -8.13656 25.2337 3.48635 
47.1068 84.1292 13.195 -0.301677 -1.28874 -4.3303 -0.325343 -1.6788 0.0829568 -0.64429 0.660729 0.200889 -0.647124 2.30574 0.211795 6.70724 12.5689 0.0237567 -4.38078 1.37856 1.85152 68.1662 -0.587008 -1.35662 125.009 43.902 -33.8926 6.18792e-007 -1.44516e-005 -1.23741e-005 146.435 87.6854 -150.922 -5.09628e-006 2.69547e-006 -3 8.03009 -4.95125 0.697601 -60.4655 -8.26378 5.15601 -124.555 39.5321 38.5159 -1.59028e-014 9.54166e-015 -1.59028e-014 151.019 85.9478 -144.299 8.22934e-006 8.2099e-006 3.00001 -8.03021 -4.9511 -0.697571 176.849 6.3897 0.182933 180 7.01596e-015 179.161 179.867 11.7784 178.915 6.41127e-007 1.71655e-006 0.0972323 -15.2138 68.8967 20.19 8.13649 25.2327 -3.48774 -175.618 0.190366 -3.249 4.54188e-006 -4.6773e-006 -1.01361 -1.28557 -11.7383 0.730619 -2.07562e-006 2.90996e-007 -0.271013 22.5967 73.0939 -24.8421 -8.13656 25.2337 3.48635 
47.1099 84.1373 13.1969 -0.300929 -1.28228 -4.33714 -0.326129 -1.67958 0.0828376 -0.645136 0.657415 0.201235 -0.647953 2.30242 0.212149 6.72029 12.5864 0.0191842 -4.39084 1.37403 1.85115 68.1789 -0.590134 -1.3596 125.093 43.9209 -33.9179 6.18792e-007 -1.44516e-005 -1.23741e-005 145.769 87.7072 -150.24 -5.09628e-006 2.69547e-006 -3 8.03009 -4.95125 0.697601 -60.4723 -8.23843 5.14065 -124.577 39.5484 38.5494 -6.36111e-015 -6.36111e-015 6.36111e-015 150.818 85.9581 -144.099 8.22934e-006 8.2099e-006 3.00001 -8.03021 -4.9511 -0.697571 176.847 6.39664 0.185095 180 7.01596e-015 179.161 179.862 11.7747 178.917 6.41127e-007 1.71655e-006 0.0973621 -15.2164 68.8965 20.1902 8.13649 25.2327 -3.48774 -175.62 0.192361 -3.24885 4.54188e-006 -4.6773e-006 -1.01361 -1.28776 -11.7313 0.730231 -2.07562e-006 2.90996e-007 -0.271087 22.6008 73.0913 -24.8411 -8.13656 25.2337 3.48635 
47.1066 84.1363 13.199 -0.300136 -1.27562 -4.34381 -0.32695 -1.68034 0.0827342 -0.646041 0.654062 0.201637 -0.64884 2.29907 0.212561 6.73373 12.6033 0.0143078 -4.40056 1.36988 1.85061 68.1922 -0.59315 -1.36259 125.177 43.939 -33.9504 6.18792e-007 -1.44516e-005 -1.23741e-005 145.096 87.729 -149.552 -5.09628e-006 2.69547e-006 -3 8.03009 -4.95125 0.697601 -60.4785 -8.21291 5.12518 -124.599 39.5641 38.5903 -1.27222e-014 9.54166e-015 -0 150.602 85.9721 -143.883 8.22934e-006 8.2099e-006 3.00001 -8.03021 -4.9511 -0.697571 176.845 6.40373 0.187137 180 7.01596e-015 179.161 179.858 11.7711 178.918 6.41127e-007 1.71655e-006 0.0974971 -15.2192 68.8963 20.1905 8.13649 25.2327 -3.48774 -175.621 0.194502 -3.24861 4.54188e-006 -4.6773e-006 -1.01362 -1.28995 -11.724 0.729843 -2.07562e-006 2.90996e-007 -0.27116 22.6049 73.0885 -24.8399 -8.13656 25.2337 3.48635 
